<mxfile host="app.diagrams.net" modified="2024-04-26T15:57:44.167Z" agent="Mozilla/5.0 (Windows NT 10.0; Win64; x64) AppleWebKit/537.36 (KHTML, like Gecko) Chrome/124.0.0.0 Safari/537.36" etag="wFIi2sbDVL4CY72gFZ0u" version="24.3.0" type="device">
  <diagram name="Страница — 1" id="Kdrbscm7HTJJJE20iMZJ">
    <mxGraphModel dx="1562" dy="845" grid="1" gridSize="10" guides="1" tooltips="1" connect="1" arrows="1" fold="1" page="1" pageScale="1" pageWidth="827" pageHeight="1169" math="0" shadow="0">
      <root>
        <mxCell id="0" />
        <mxCell id="1" parent="0" />
        <mxCell id="T4gbcBYVruzCi6M1amcc-1" value="" style="edgeStyle=orthogonalEdgeStyle;rounded=0;orthogonalLoop=1;jettySize=auto;html=1;" edge="1" parent="1" source="T4gbcBYVruzCi6M1amcc-2" target="T4gbcBYVruzCi6M1amcc-4">
          <mxGeometry relative="1" as="geometry" />
        </mxCell>
        <mxCell id="T4gbcBYVruzCi6M1amcc-2" value="Начало" style="ellipse;whiteSpace=wrap;html=1;" vertex="1" parent="1">
          <mxGeometry x="320" y="50" width="120" height="60" as="geometry" />
        </mxCell>
        <mxCell id="T4gbcBYVruzCi6M1amcc-23" value="" style="edgeStyle=orthogonalEdgeStyle;rounded=0;orthogonalLoop=1;jettySize=auto;html=1;" edge="1" parent="1" source="T4gbcBYVruzCi6M1amcc-4" target="T4gbcBYVruzCi6M1amcc-6">
          <mxGeometry relative="1" as="geometry" />
        </mxCell>
        <mxCell id="T4gbcBYVruzCi6M1amcc-4" value="Объявление массива matrix" style="rounded=0;whiteSpace=wrap;html=1;" vertex="1" parent="1">
          <mxGeometry x="320" y="130" width="120" height="60" as="geometry" />
        </mxCell>
        <mxCell id="T4gbcBYVruzCi6M1amcc-5" value="" style="edgeStyle=orthogonalEdgeStyle;rounded=0;orthogonalLoop=1;jettySize=auto;html=1;" edge="1" parent="1" source="T4gbcBYVruzCi6M1amcc-6" target="T4gbcBYVruzCi6M1amcc-8">
          <mxGeometry relative="1" as="geometry" />
        </mxCell>
        <mxCell id="T4gbcBYVruzCi6M1amcc-6" value="Вызов функункции" style="rounded=0;whiteSpace=wrap;html=1;" vertex="1" parent="1">
          <mxGeometry x="320" y="210" width="120" height="60" as="geometry" />
        </mxCell>
        <mxCell id="T4gbcBYVruzCi6M1amcc-7" value="" style="edgeStyle=orthogonalEdgeStyle;rounded=0;orthogonalLoop=1;jettySize=auto;html=1;" edge="1" parent="1" source="T4gbcBYVruzCi6M1amcc-8" target="T4gbcBYVruzCi6M1amcc-9">
          <mxGeometry relative="1" as="geometry" />
        </mxCell>
        <mxCell id="T4gbcBYVruzCi6M1amcc-8" value="Объявление массива sredznach" style="rounded=0;whiteSpace=wrap;html=1;" vertex="1" parent="1">
          <mxGeometry x="320" y="300" width="120" height="60" as="geometry" />
        </mxCell>
        <mxCell id="T4gbcBYVruzCi6M1amcc-9" value="&lt;font style=&quot;font-size: 14px;&quot;&gt;for(проход по матрице с шагом 2 для i)&lt;/font&gt;" style="rhombus;whiteSpace=wrap;html=1;" vertex="1" parent="1">
          <mxGeometry x="260" y="390" width="240" height="120" as="geometry" />
        </mxCell>
        <mxCell id="T4gbcBYVruzCi6M1amcc-10" value="&lt;span style=&quot;font-size: 14px;&quot;&gt;for(проход по матрице с шагом 1 для j)&lt;/span&gt;" style="rhombus;whiteSpace=wrap;html=1;" vertex="1" parent="1">
          <mxGeometry x="40" y="553" width="200" height="150" as="geometry" />
        </mxCell>
        <mxCell id="T4gbcBYVruzCi6M1amcc-31" value="" style="edgeStyle=orthogonalEdgeStyle;rounded=0;orthogonalLoop=1;jettySize=auto;html=1;" edge="1" parent="1" source="T4gbcBYVruzCi6M1amcc-11" target="T4gbcBYVruzCi6M1amcc-30">
          <mxGeometry relative="1" as="geometry" />
        </mxCell>
        <mxCell id="T4gbcBYVruzCi6M1amcc-11" value="Добавляем в sum этот элемент" style="rounded=0;whiteSpace=wrap;html=1;" vertex="1" parent="1">
          <mxGeometry x="294" y="520" width="120" height="60" as="geometry" />
        </mxCell>
        <mxCell id="T4gbcBYVruzCi6M1amcc-17" value="Да" style="text;html=1;align=center;verticalAlign=middle;resizable=0;points=[];autosize=1;strokeColor=none;fillColor=none;" vertex="1" parent="1">
          <mxGeometry x="190" y="430" width="40" height="30" as="geometry" />
        </mxCell>
        <mxCell id="T4gbcBYVruzCi6M1amcc-18" value="Нет" style="text;html=1;align=center;verticalAlign=middle;resizable=0;points=[];autosize=1;strokeColor=none;fillColor=none;" vertex="1" parent="1">
          <mxGeometry x="570" y="430" width="40" height="30" as="geometry" />
        </mxCell>
        <mxCell id="T4gbcBYVruzCi6M1amcc-19" value="Конец" style="ellipse;whiteSpace=wrap;html=1;" vertex="1" parent="1">
          <mxGeometry x="530" y="680" width="120" height="80" as="geometry" />
        </mxCell>
        <mxCell id="T4gbcBYVruzCi6M1amcc-26" value="" style="edgeStyle=orthogonalEdgeStyle;rounded=0;orthogonalLoop=1;jettySize=auto;html=1;" edge="1" parent="1" source="T4gbcBYVruzCi6M1amcc-24" target="T4gbcBYVruzCi6M1amcc-10">
          <mxGeometry relative="1" as="geometry" />
        </mxCell>
        <mxCell id="T4gbcBYVruzCi6M1amcc-24" value="Сумма" style="rounded=0;whiteSpace=wrap;html=1;" vertex="1" parent="1">
          <mxGeometry x="80" y="470" width="120" height="60" as="geometry" />
        </mxCell>
        <mxCell id="T4gbcBYVruzCi6M1amcc-25" value="" style="endArrow=classic;html=1;rounded=0;exitX=0;exitY=0.5;exitDx=0;exitDy=0;entryX=0.5;entryY=0;entryDx=0;entryDy=0;" edge="1" parent="1" source="T4gbcBYVruzCi6M1amcc-9" target="T4gbcBYVruzCi6M1amcc-24">
          <mxGeometry width="50" height="50" relative="1" as="geometry">
            <mxPoint x="20" y="350" as="sourcePoint" />
            <mxPoint x="70" y="300" as="targetPoint" />
            <Array as="points">
              <mxPoint x="140" y="450" />
            </Array>
          </mxGeometry>
        </mxCell>
        <mxCell id="T4gbcBYVruzCi6M1amcc-27" value="" style="endArrow=classic;html=1;rounded=0;exitX=1;exitY=0.5;exitDx=0;exitDy=0;entryX=0;entryY=0.5;entryDx=0;entryDy=0;" edge="1" parent="1" source="T4gbcBYVruzCi6M1amcc-10" target="T4gbcBYVruzCi6M1amcc-11">
          <mxGeometry width="50" height="50" relative="1" as="geometry">
            <mxPoint x="250" y="590" as="sourcePoint" />
            <mxPoint x="270" y="540" as="targetPoint" />
            <Array as="points">
              <mxPoint x="260" y="628" />
              <mxPoint x="260" y="550" />
            </Array>
          </mxGeometry>
        </mxCell>
        <mxCell id="T4gbcBYVruzCi6M1amcc-30" value="Считаем среднее значение от суммы(там сумма элементов нечётной строки) и добавляем его в новый массив" style="rounded=0;whiteSpace=wrap;html=1;" vertex="1" parent="1">
          <mxGeometry x="440" y="520" width="200" height="60" as="geometry" />
        </mxCell>
        <mxCell id="T4gbcBYVruzCi6M1amcc-35" value="" style="edgeStyle=orthogonalEdgeStyle;rounded=0;orthogonalLoop=1;jettySize=auto;html=1;" edge="1" parent="1" source="T4gbcBYVruzCi6M1amcc-33" target="T4gbcBYVruzCi6M1amcc-19">
          <mxGeometry relative="1" as="geometry" />
        </mxCell>
        <mxCell id="T4gbcBYVruzCi6M1amcc-33" value="Выводим новый массив" style="shape=parallelogram;perimeter=parallelogramPerimeter;whiteSpace=wrap;html=1;fixedSize=1;" vertex="1" parent="1">
          <mxGeometry x="530" y="598" width="120" height="60" as="geometry" />
        </mxCell>
        <mxCell id="T4gbcBYVruzCi6M1amcc-34" value="" style="endArrow=classic;html=1;rounded=0;exitX=0.75;exitY=1;exitDx=0;exitDy=0;entryX=0.5;entryY=0;entryDx=0;entryDy=0;" edge="1" parent="1" source="T4gbcBYVruzCi6M1amcc-30" target="T4gbcBYVruzCi6M1amcc-33">
          <mxGeometry width="50" height="50" relative="1" as="geometry">
            <mxPoint x="720" y="490" as="sourcePoint" />
            <mxPoint x="770" y="440" as="targetPoint" />
          </mxGeometry>
        </mxCell>
        <mxCell id="T4gbcBYVruzCi6M1amcc-36" value="" style="endArrow=classic;html=1;rounded=0;exitX=1;exitY=0.5;exitDx=0;exitDy=0;entryX=1;entryY=0.5;entryDx=0;entryDy=0;" edge="1" parent="1" source="T4gbcBYVruzCi6M1amcc-9" target="T4gbcBYVruzCi6M1amcc-19">
          <mxGeometry width="50" height="50" relative="1" as="geometry">
            <mxPoint x="630" y="460" as="sourcePoint" />
            <mxPoint x="680" y="410" as="targetPoint" />
            <Array as="points">
              <mxPoint x="700" y="450" />
              <mxPoint x="700" y="720" />
            </Array>
          </mxGeometry>
        </mxCell>
      </root>
    </mxGraphModel>
  </diagram>
</mxfile>
